<?xml version="1.0" encoding="utf-8"?>
<!-- Generator: Adobe Illustrator 16.0.0, SVG Export Plug-In . SVG Version: 6.00 Build 0)  -->
<!DOCTYPE svg PUBLIC "-//W3C//DTD SVG 1.1//EN" "http://www.w3.org/Graphics/SVG/1.1/DTD/svg11.dtd">
<svg version="1.1" id="Layer_1" xmlns="http://www.w3.org/2000/svg" xmlns:xlink="http://www.w3.org/1999/xlink" x="0px" y="0px"
	 width="751.181px" height="272.126px" viewBox="0 0 751.181 272.126" enable-background="new 0 0 751.181 272.126"
	 xml:space="preserve">
<rect x="2.697" y="0.383" fill="#ED1C24" width="753.03" height="273.16"/>
<g>
	<g>
		<line fill="#F1F2F2" stroke="#000000" stroke-miterlimit="10" x1="272.537" y1="265.964" x2="473.892" y2="265.964"/>
		<g>
			<g>
				<line fill="#F1F2F2" stroke="#000000" stroke-miterlimit="10" x1="272.537" y1="265.964" x2="272.537" y2="263.715"/>
				<line fill="#F1F2F2" stroke="#000000" stroke-miterlimit="10" x1="312.808" y1="265.964" x2="312.808" y2="263.715"/>
				<line fill="#F1F2F2" stroke="#000000" stroke-miterlimit="10" x1="353.08" y1="265.964" x2="353.08" y2="263.715"/>
				<line fill="#F1F2F2" stroke="#000000" stroke-miterlimit="10" x1="393.351" y1="265.964" x2="393.351" y2="263.715"/>
				<line fill="#F1F2F2" stroke="#000000" stroke-miterlimit="10" x1="433.622" y1="265.964" x2="433.622" y2="263.715"/>
				<line fill="#F1F2F2" stroke="#000000" stroke-miterlimit="10" x1="473.892" y1="265.964" x2="473.892" y2="263.715"/>
			</g>
			<g>
			</g>
		</g>
	</g>
	<g>
		<g>
			<text transform="matrix(1 0 0 1 264.7744 269.126)" fill="#F1F2F2" font-family="'MyriadPro-Regular'" font-size="9">0</text>
			<text transform="matrix(1 0 0 1 255.5405 251.1367)" fill="#F1F2F2" font-family="'MyriadPro-Regular'" font-size="9">200</text>
			<text transform="matrix(1 0 0 1 255.5405 233.1475)" fill="#F1F2F2" font-family="'MyriadPro-Regular'" font-size="9">400</text>
			<text transform="matrix(1 0 0 1 255.5405 215.1582)" fill="#F1F2F2" font-family="'MyriadPro-Regular'" font-size="9">600</text>
			<text transform="matrix(1 0 0 1 255.5405 197.1699)" fill="#F1F2F2" font-family="'MyriadPro-Regular'" font-size="9">800</text>
			<text transform="matrix(1 0 0 1 250.9238 179.1807)" fill="#F1F2F2" font-family="'MyriadPro-Regular'" font-size="9">1000</text>
		</g>
		<line fill="#F1F2F2" stroke="#000000" stroke-miterlimit="10" x1="272.537" y1="265.964" x2="272.537" y2="176.019"/>
		<g>
			<g>
				<line fill="#F1F2F2" stroke="#000000" stroke-miterlimit="10" x1="272.537" y1="265.964" x2="277.571" y2="265.964"/>
				<line fill="#F1F2F2" stroke="#000000" stroke-miterlimit="10" x1="272.537" y1="247.975" x2="277.571" y2="247.975"/>
				<line fill="#F1F2F2" stroke="#000000" stroke-miterlimit="10" x1="272.537" y1="229.985" x2="277.571" y2="229.985"/>
				<line fill="#F1F2F2" stroke="#000000" stroke-miterlimit="10" x1="272.537" y1="211.997" x2="277.571" y2="211.997"/>
				<line fill="#F1F2F2" stroke="#000000" stroke-miterlimit="10" x1="272.537" y1="194.008" x2="277.571" y2="194.008"/>
				<line fill="#F1F2F2" stroke="#000000" stroke-miterlimit="10" x1="272.537" y1="176.019" x2="277.571" y2="176.019"/>
			</g>
			<g>
			</g>
		</g>
	</g>
	<g>
		<g>
			<g>
				
					<rect x="298.58" y="235.112" fill="#F1F2F2" stroke="#000000" stroke-width="0.5" stroke-miterlimit="10" width="9.665" height="30.852"/>
				
					<rect x="338.851" y="236.013" fill="#F1F2F2" stroke="#000000" stroke-width="0.5" stroke-miterlimit="10" width="9.664" height="29.951"/>
				
					<rect x="379.122" y="232.954" fill="#F1F2F2" stroke="#000000" stroke-width="0.5" stroke-miterlimit="10" width="9.664" height="33.01"/>
				
					<rect x="419.394" y="258.049" fill="#F1F2F2" stroke="#000000" stroke-width="0.5" stroke-miterlimit="10" width="9.664" height="7.915"/>
				
					<rect x="459.663" y="258.049" fill="#F1F2F2" stroke="#000000" stroke-width="0.5" stroke-miterlimit="10" width="9.666" height="7.915"/>
			</g>
		</g>
		<g>
			<g>
				
					<rect x="287.84" y="235.112" fill="#F1F2F2" stroke="#000000" stroke-width="0.5" stroke-miterlimit="10" width="9.665" height="30.852"/>
				
					<rect x="328.111" y="225.938" fill="#F1F2F2" stroke="#000000" stroke-width="0.5" stroke-miterlimit="10" width="9.666" height="40.025"/>
				
					<rect x="368.382" y="262.996" fill="#F1F2F2" stroke="#000000" stroke-width="0.5" stroke-miterlimit="10" width="9.666" height="2.968"/>
				
					<rect x="408.653" y="235.112" fill="#F1F2F2" stroke="#000000" stroke-width="0.5" stroke-miterlimit="10" width="9.666" height="30.852"/>
				
					<rect x="448.925" y="262.996" fill="#F1F2F2" stroke="#000000" stroke-width="0.5" stroke-miterlimit="10" width="9.664" height="2.968"/>
			</g>
		</g>
		<g>
			<g>
				
					<rect x="277.101" y="263.896" fill="#F1F2F2" stroke="#000000" stroke-width="0.5" stroke-miterlimit="10" width="9.666" height="2.068"/>
				
					<rect x="317.373" y="235.112" fill="#F1F2F2" stroke="#000000" stroke-width="0.5" stroke-miterlimit="10" width="9.665" height="30.852"/>
				
					<rect x="357.644" y="235.112" fill="#F1F2F2" stroke="#000000" stroke-width="0.5" stroke-miterlimit="10" width="9.664" height="30.852"/>
				
					<rect x="397.915" y="188.161" fill="#F1F2F2" stroke="#000000" stroke-width="0.5" stroke-miterlimit="10" width="9.664" height="77.803"/>
				
					<rect x="438.187" y="258.049" fill="#F1F2F2" stroke="#000000" stroke-width="0.5" stroke-miterlimit="10" width="9.664" height="7.915"/>
			</g>
		</g>
	</g>
	<g>
		<g>
		</g>
		<g>
		</g>
		<g>
		</g>
	</g>
</g>
<g>
	<path fill="#FFFFFF" d="M80.94,52.081c-0.001,0.886-0.552,1.704-1.447,2.146L4.331,91.336c-0.895,0.443-1.995,0.441-2.889-0.004
		C0.548,90.888-0.001,90.068,0,89.183l0.093-74.403c0.001-0.887,0.553-1.705,1.448-2.146s1.995-0.44,2.889,0.003L79.499,49.93
		C80.393,50.375,80.941,51.194,80.94,52.081L80.94,52.081z M5.784,84.895l66.487-32.826L5.866,19.081L5.784,84.895z"/>
</g>
<g>
	<g>
		<path fill="#FFFFFF" d="M649.716,64.396"/>
		<g>
			<path fill="#FFFFFF" d="M746.096,117.942h-25.139c-0.839,0-1.519,0.542-1.519,1.21s0.68,1.21,1.519,1.21h25.139
				c1.169,0,2.118,0.757,2.118,1.688s-0.95,1.688-2.118,1.688h-62.528c-5.152,0-9.345-3.34-9.345-7.445
				c0-3.453,2.942-6.43,7.155-7.239c0.393-0.075,0.73-0.272,0.941-0.547c0.209-0.274,0.273-0.604,0.178-0.917l-6.433-20.902
				c-0.2-0.648-1.022-1.046-1.837-0.887s-1.313,0.814-1.113,1.463l6.092,19.794c-4.79,1.429-8.021,5.07-8.021,9.235
				c0,5.439,5.555,9.865,12.382,9.865h2.14c-3.073,1.987-5.041,5.018-5.041,8.409c0,1.142,0.222,2.267,0.66,3.344
				c0.259,0.636,1.116,0.983,1.913,0.777c0.798-0.206,1.235-0.889,0.977-1.524c-0.34-0.836-0.513-1.71-0.513-2.598
				c0-4.637,4.735-8.409,10.555-8.409c5.82,0,10.556,3.772,10.556,8.409c0,4.637-4.735,8.41-10.556,8.41
				c-2.675,0-5.226-0.798-7.184-2.248c-0.614-0.455-1.575-0.427-2.146,0.063s-0.536,1.255,0.079,1.71
				c2.521,1.867,5.807,2.896,9.252,2.896c7.494,0,13.592-4.858,13.592-10.83c0-3.392-1.968-6.423-5.041-8.41h20.912
				c-3.072,1.987-5.041,5.019-5.041,8.41c0,5.971,6.098,10.83,13.593,10.83c7.494,0,13.592-4.858,13.592-10.83
				c0-3.392-1.968-6.423-5.041-8.41h5.272c2.843,0,5.155-1.842,5.155-4.106C751.251,119.785,748.938,117.942,746.096,117.942
				L746.096,117.942z M742.828,134.566c0,4.637-4.735,8.41-10.556,8.41s-10.555-3.772-10.555-8.41c0-4.637,4.734-8.409,10.555-8.409
				S742.828,129.929,742.828,134.566z"/>
			<path fill="#FFFFFF" d="M752.854,76.138c-0.287-0.291-0.727-0.461-1.192-0.461h-71.497l-1.292-4.197
				c-1.024-3.328-4.743-5.652-9.044-5.652h-14.958c-2.843,0-5.155,1.843-5.155,4.107s2.313,4.107,5.155,4.107h14.175l2.718,8.832
				c0.2,0.648,1.021,1.046,1.837,0.887c0.814-0.159,1.313-0.814,1.113-1.463l-2.905-9.438c-0.224-0.729-1.038-1.237-1.979-1.237
				h-14.958c-1.168,0-2.118-0.757-2.118-1.688s0.95-1.688,2.118-1.688h14.958c2.898,0,5.404,1.566,6.095,3.809l11.237,36.515
				c0.272,0.886,0.023,1.805-0.683,2.521c-0.706,0.718-1.767,1.129-2.911,1.129c-2.816,0-5.109,1.826-5.109,4.07
				s2.293,4.07,5.109,4.07h31.315c0.839,0,1.519-0.542,1.519-1.21s-0.68-1.21-1.519-1.21h-31.315c-1.143,0-2.071-0.74-2.071-1.651
				c0-0.909,0.929-1.65,2.071-1.65c2.084,0,4.016-0.748,5.301-2.055c0.89-0.903,1.38-1.983,1.434-3.097l51.944-0.117
				c0.701-0.002,1.31-0.385,1.473-0.928l9.42-31.274C753.248,76.809,753.143,76.429,752.854,76.138L752.854,76.138z M744.185,96.527
				h-9.23l1.966-8.005h9.676L744.185,96.527z M734.419,86.102h-9.525l0.873-8.005h10.618L734.419,86.102z M722.616,106.997
				l0.877-8.05h7.772l-1.973,8.034L722.616,106.997z M701.492,107.044l-1.988-8.098h7.772l0.881,8.082L701.492,107.044z
				 M689.826,107.071l-2.5-8.124h9.083l1.99,8.104L689.826,107.071z M708.925,86.102l-0.873-8.005h14.666l-0.873,8.005H708.925z
				 M721.581,88.522l-0.872,8.005h-10.648l-0.872-8.005H721.581z M707.013,96.527h-8.104l-1.965-8.005h9.195L707.013,96.527z
				 M705.876,86.102h-9.525l-1.966-8.005h10.618L705.876,86.102z M695.815,96.527h-9.234l-2.463-8.005h9.731L695.815,96.527z
				 M710.324,98.947h10.121l-0.879,8.057l-8.362,0.019L710.324,98.947z M723.757,96.527l0.873-8.005h9.195l-1.965,8.005H723.757z
				 M691.29,78.097l1.966,8.005h-9.883l-2.463-8.005H691.29z M741.044,106.955l-8.654,0.02l1.971-8.027h9.096L741.044,106.955z
				 M747.325,86.102h-9.811l1.965-8.005h10.257L747.325,86.102z"/>
			<path fill="#FFFFFF" d="M694.258,140.435c4.062,0,7.366-2.632,7.366-5.869c0-3.235-3.305-5.868-7.366-5.868
				c-4.061,0-7.365,2.633-7.365,5.868C686.893,137.803,690.197,140.435,694.258,140.435z M694.258,131.118
				c2.387,0,4.328,1.547,4.328,3.448s-1.941,3.449-4.328,3.449c-2.386,0-4.328-1.547-4.328-3.449S691.872,131.118,694.258,131.118z"
				/>
			<path fill="#FFFFFF" d="M732.272,140.435c4.062,0,7.365-2.632,7.365-5.869c0-3.235-3.304-5.868-7.365-5.868
				s-7.365,2.633-7.365,5.868C724.907,137.803,728.211,140.435,732.272,140.435z M732.272,131.118c2.387,0,4.328,1.547,4.328,3.448
				s-1.941,3.449-4.328,3.449s-4.328-1.547-4.328-3.449S729.886,131.118,732.272,131.118z"/>
		</g>
	</g>
</g>
<g>
	<path fill="#FAA550" d="M72.447,228.88h-7.245v-16.217h7.245c2.002,0,3.623,1.209,3.623,2.703v10.812
		C76.07,227.671,74.449,228.88,72.447,228.88z"/>
	<g>
		<path fill="#FFFFFF" d="M98.45,236.759c8.15-2.765,13.843-8.884,13.843-15.988c0-9.688-10.563-17.569-23.545-17.569
			c-1.293,0-2.575,0.108-3.848,0.264c-0.641-1.705-2.72-2.967-5.209-2.967h-7.244c-4.993,0-9.056,3.031-9.056,6.758v27.028
			c0,3.001,2.651,5.521,6.284,6.399c-2.857,2.807-4.474,6.261-4.474,9.819v6.909l-16.3-10.426V228.88
			c0-2.235-2.438-4.054-5.434-4.054v-13.515c0-3.727-4.063-6.758-9.057-6.758h-5.434v-2.702H20.7v2.702h4.656v2.703h-7.244v-0.226
			h-3.623v2.929h14.489v-2.703h5.434c2.996,0,5.434,1.819,5.434,4.055v13.515c-2.995,0-5.434,1.818-5.434,4.054v22.208v10.227
			c0,2.235,2.438,4.055,5.434,4.055h3.623c2.238,0,4.162-1.015,4.993-2.461l11.149,7.21c2.004,1.296,4.565,2.008,7.214,2.008
			c0.064,0,0.125-0.007,0.188-0.007v0.007h41.657v-21.623C108.671,244.862,104.695,239.685,98.45,236.759z M85.126,214.013h2.316
			l1.811,4.055h1.307c1.997,0,3.622,1.212,3.622,2.703c0,1.49-1.625,2.702-3.622,2.702h-1.812v1.352
			c0,3.806,2.717,7.389,7.091,9.347l0.657,0.295c-2.383,0.754-5.003,1.17-7.748,1.17c-1.223,0-2.431-0.11-3.622-0.274V214.013z
			 M108.671,220.771c0,5.033-3.379,9.484-8.527,12.175l-2.44-1.092c-2.841-1.272-4.753-3.456-5.223-5.871
			c3.067-0.63,5.324-2.729,5.324-5.212c0-2.637-2.543-4.84-5.897-5.313l-1.854-4.147h-4.928v-5.13
			c1.193-0.163,2.401-0.275,3.622-0.275C99.732,205.904,108.671,212.573,108.671,220.771z M67.014,234.284v-4.054h5.434
			c2.996,0,5.434-1.819,5.434-4.055v-1.35h-3.622v1.35c0,0.746-0.812,1.352-1.812,1.352h-5.434v-13.515h5.434
			c1,0,1.812,0.605,1.812,1.352v6.759h3.622v-6.759c0-2.235-2.438-4.055-5.434-4.055h-5.434v-4.054c0-2.235,2.438-4.055,5.434-4.055
			h7.244c1.001,0,1.813,0.605,1.813,1.352v32.435c0,0.746-0.812,1.352-1.813,1.352h-7.244
			C69.451,238.339,67.014,236.52,67.014,234.284z M45.279,245.37c-0.742-0.166-1.512-0.272-2.3-0.272h-0.54
			c-1.628,0-3.139,0.368-4.406,0.991v-13.154h7.244v12.436H45.279z M39.846,227.528h3.623c0.999,0,1.811,0.605,1.811,1.352v1.352
			h-7.244v-1.352C38.035,228.134,38.847,227.528,39.846,227.528z M45.279,261.314c0,0.746-0.812,1.352-1.811,1.352h-3.623
			c-0.999,0-1.811-0.605-1.811-1.352v-5.148l7.244,4.685V261.314z M61.986,268.076l-22.432-14.504
			c-0.966-0.625-1.52-1.53-1.52-2.484c0-1.813,1.976-3.288,4.406-3.288h0.54c1.05,0,2.07,0.281,2.867,0.791l23.61,15.102
			l2.356-2.052l-2.416-1.547l8.481-6.328l6.495,4.846l-12.327,9.198C69.418,269.773,64.795,269.894,61.986,268.076z M86.937,256.699
			l-6.493-4.845l9.522-7.104c0.867-0.647,2.021-1.004,3.247-1.004c2.529,0,4.592,1.538,4.592,3.427c0,0.917-0.479,1.776-1.345,2.424
			L86.937,256.699z M105.049,269.424h-30.04l24.013-17.918c1.55-1.156,2.404-2.696,2.404-4.334c0-3.38-3.684-6.13-8.213-6.13
			c-2.194,0-4.257,0.638-5.809,1.796l-18.579,13.863v-6.198c0-3.587,1.854-6.921,5.209-9.461h5.657c2.487,0,4.568-1.261,5.209-2.967
			c1.271,0.155,2.553,0.264,3.848,0.264c1.675,0,3.309-0.137,4.886-0.387c6.846,2.038,11.415,7.029,11.415,12.551V269.424z"/>
		<rect x="70.636" y="205.905" fill="#FFFFFF" width="3.623" height="2.703"/>
	</g>
	<polygon fill="#FFFFFF" points="16.301,209.108 27.514,199.346 24.402,194.701 10.646,199.1 8.844,188.337 0,188.337 0,228.88 
		9.038,229.072 10.619,220.811 24.402,225.219 27.514,220.574 16.301,210.812 	"/>
	<path fill="#333333" d="M0,272.126h14.489v-44.598H0V272.126z M3.622,230.231h7.245v39.192H3.622V230.231z"/>
	<g>
	</g>
	<g>
	</g>
	<g>
	</g>
	<g>
	</g>
	<g>
	</g>
	<g>
	</g>
	<g>
	</g>
	<g>
	</g>
	<g>
	</g>
	<g>
	</g>
	<g>
	</g>
	<g>
	</g>
	<g>
	</g>
	<g>
	</g>
	<g>
	</g>
</g>
<g>
	<g>
		<g>
			<path fill="#FFFFFF" d="M356.805-1c-0.806,0-1.458,0.601-1.458,1.342v14.871c0,0.741,0.653,1.341,1.458,1.341
				c0.805,0,1.458-0.601,1.458-1.341V0.342C358.263-0.399,357.61-1,356.805-1z"/>
		</g>
	</g>
	<g>
		<g>
			<path fill="#FFFFFF" d="M438.48,74.967c3.445,0,6.25-2.58,6.25-5.75s-2.805-5.75-6.25-5.75c-1.612,0-3.084,0.564-4.194,1.489
				L415.055,54.14c0.325-0.695,0.506-1.46,0.506-2.265c0-3.17-2.804-5.75-6.251-5.75s-6.251,2.58-6.251,5.75
				c0,0.856,0.206,1.669,0.572,2.4l-15.72,11.332c-1.067-0.78-2.416-1.248-3.882-1.248c-1.286,0-2.482,0.359-3.478,0.974
				l-5.109-4.336c0.605-0.885,0.957-1.932,0.957-3.052c0-3.171-2.804-5.751-6.25-5.751s-6.251,2.58-6.251,5.751
				c0,1.159,0.376,2.239,1.021,3.143l-6.656,5.876V43.007l12.939-17.103c0.61,0.183,1.261,0.284,1.938,0.284
				c0.566,0,1.115-0.07,1.638-0.201l8.575,12.469c-1.158,1.044-1.879,2.499-1.879,4.105c0,3.17,2.804,5.75,6.251,5.75
				c3.446,0,6.251-2.58,6.251-5.75c0-1.448-0.587-2.771-1.551-3.784l12.983-17.948c0.616,0.188,1.273,0.29,1.956,0.29
				c0.663,0,1.301-0.096,1.9-0.272l7.85,11.098c-0.885,0.992-1.416,2.26-1.416,3.639c0,3.171,2.805,5.751,6.251,5.751
				c3.447,0,6.251-2.58,6.251-5.751c0-0.941-0.249-1.83-0.687-2.615l7.726-6.78c0.946,0.529,2.055,0.834,3.24,0.834
				c3.446,0,6.25-2.58,6.25-5.75c0-3.171-2.804-5.751-6.25-5.751c-3.447,0-6.252,2.58-6.252,5.751c0,1.11,0.345,2.146,0.939,3.026
				l-7.554,6.629c-1.03-0.688-2.296-1.095-3.664-1.095c-0.891,0-1.738,0.173-2.506,0.484l-7.685-10.863
				c1.146-1.043,1.857-2.489,1.857-4.085c0-3.171-2.805-5.75-6.251-5.75s-6.251,2.58-6.251,5.75c0,1.576,0.692,3.006,1.813,4.046
				l-12.882,17.809c-0.719-0.266-1.502-0.413-2.322-0.413c-0.65,0-1.279,0.092-1.87,0.263l-8.514-12.381
				c1.259-1.053,2.05-2.57,2.05-4.254c0-3.171-2.804-5.751-6.25-5.751c-3.447,0-6.251,2.58-6.251,5.751
				c0,1.582,0.698,3.016,1.825,4.057L358.263,38.31V20.58c0-0.742-0.653-1.342-1.459-1.342c-0.805,0-1.458,0.601-1.458,1.342v58.475
				c0,0.742,0.653,1.342,1.458,1.342h85.37c0.806,0,1.458-0.601,1.458-1.342c0-0.741-0.653-1.341-1.458-1.341h-83.911v-7.031
				l8.78-7.75c0.916,0.485,1.976,0.764,3.106,0.764c1.171,0,2.269-0.299,3.207-0.817l5.218,4.427
				c-0.507,0.831-0.797,1.786-0.797,2.804c0,3.171,2.805,5.751,6.252,5.751c3.446,0,6.25-2.58,6.25-5.751
				c0-0.853-0.204-1.663-0.568-2.392l15.724-11.335c1.067,0.777,2.412,1.243,3.874,1.243c1.516,0,2.907-0.5,3.991-1.328
				l19.338,10.875c-0.265,0.635-0.41,1.324-0.41,2.043C432.229,72.387,435.033,74.967,438.48,74.967z M438.48,66.149
				c1.837,0,3.333,1.376,3.333,3.067c0,1.691-1.496,3.067-3.333,3.067c-1.839,0-3.336-1.376-3.336-3.067
				C435.145,67.525,436.642,66.149,438.48,66.149z M438.48,18.206c1.837,0,3.333,1.375,3.333,3.066c0,1.692-1.496,3.067-3.333,3.067
				c-1.839,0-3.336-1.375-3.336-3.067C435.145,19.581,436.642,18.206,438.48,18.206z M421.95,32.517
				c1.838,0,3.334,1.376,3.334,3.067c0,1.692-1.496,3.067-3.334,3.067c-1.839,0-3.334-1.375-3.334-3.067
				C418.616,33.893,420.111,32.517,421.95,32.517z M407.365,12.302c1.838,0,3.335,1.376,3.335,3.067
				c0,1.691-1.497,3.066-3.335,3.066s-3.335-1.375-3.335-3.066S405.527,12.302,407.365,12.302z M387.725,39.494
				c1.838,0,3.334,1.376,3.334,3.066c0,1.692-1.496,3.067-3.334,3.067c-1.839,0-3.334-1.375-3.334-3.067
				C384.391,40.87,385.886,39.494,387.725,39.494z M373.14,17.37c1.838,0,3.334,1.376,3.334,3.067c0,1.691-1.496,3.067-3.334,3.067
				c-1.839,0-3.334-1.376-3.334-3.067C369.805,18.747,371.301,17.37,373.14,17.37z M370.15,61.013c-1.839,0-3.334-1.375-3.334-3.067
				c0-1.691,1.496-3.066,3.334-3.066c1.838,0,3.333,1.375,3.333,3.066C373.483,59.637,371.988,61.013,370.15,61.013z
				 M384.029,73.178c-1.838,0-3.334-1.376-3.334-3.067c0-1.691,1.496-3.067,3.334-3.067c0.906,0,1.729,0.335,2.33,0.877
				c0.051,0.124,0.123,0.244,0.217,0.354c0.092,0.108,0.2,0.198,0.316,0.272c0.297,0.458,0.471,0.992,0.471,1.563
				C387.363,71.802,385.868,73.178,384.029,73.178z M409.31,54.943c-1.838,0-3.334-1.375-3.334-3.067
				c0-1.691,1.496-3.067,3.334-3.067c1.839,0,3.334,1.376,3.334,3.067C412.644,53.567,411.148,54.943,409.31,54.943z"/>
		</g>
	</g>
	<g>
	</g>
	<g>
	</g>
	<g>
	</g>
	<g>
	</g>
	<g>
	</g>
	<g>
	</g>
	<g>
	</g>
	<g>
	</g>
	<g>
	</g>
	<g>
	</g>
	<g>
	</g>
	<g>
	</g>
	<g>
	</g>
	<g>
	</g>
	<g>
	</g>
</g>
<g>
	<g>
		<g>
			<path fill="#FFFFFF" d="M743.377,219.764l-11.794-3.224l0.313-1.145c0.083-0.305,0.05-0.625-0.094-0.896l-1.517-2.875
				c-0.144-0.269-0.383-0.465-0.667-0.542l-4.036-1.104l-3.469-3.278l-0.007,0.01c-0.124-0.117-0.267-0.214-0.438-0.261
				l-22.515-6.153c-2.365-0.646-4.85,0.882-5.539,3.406l-1.877,6.867c-0.69,2.525,0.672,5.104,3.037,5.75l4.053,1.107l-7.121,14.668
				l-2.641,1.624c-1.032,0.634-1.813,1.688-2.142,2.894l-2.427,8.88c-0.69,2.525,0.673,5.104,3.037,5.75l12.865,3.516
				c2.365,0.646,4.849-0.881,5.539-3.406l2.235-8.179c0.477-1.745-0.003-3.563-1.251-4.742l-3.392-3.205l2.929-7.103l1.134,0.311
				c0.529,0.145,1.093-0.146,1.325-0.683l1.914-4.427c0.138-0.316,0.139-0.677,0.004-0.984c-0.134-0.311-0.392-0.536-0.704-0.621
				l-0.929-0.254l0.446-1.08l7.638,2.088c0.173,0.047,0.345,0.036,0.511-0.001l0.001,0.011l4.654-1.058l4.036,1.103
				c0.284,0.078,0.59,0.03,0.85-0.128l2.769-1.703c0.261-0.159,0.453-0.419,0.536-0.724l0.313-1.145l11.794,3.224
				c0.592,0.161,1.213-0.22,1.385-0.852C744.309,220.568,743.969,219.925,743.377,219.764z M703.529,213.793l-6.432-1.758
				c-0.594-0.162-0.933-0.805-0.76-1.438s0.792-1.014,1.385-0.852l6.433,1.758c0.593,0.162,0.932,0.805,0.759,1.438
				S704.123,213.955,703.529,213.793z M704.78,209.215l-6.432-1.758c-0.594-0.162-0.933-0.805-0.76-1.438
				c0.174-0.633,0.793-1.014,1.385-0.852l6.433,1.758c0.594,0.162,0.933,0.805,0.759,1.438
				C705.992,208.996,705.374,209.377,704.78,209.215z"/>
		</g>
	</g>
	<g>
	</g>
	<g>
	</g>
	<g>
	</g>
	<g>
	</g>
	<g>
	</g>
	<g>
	</g>
	<g>
	</g>
	<g>
	</g>
	<g>
	</g>
	<g>
	</g>
	<g>
	</g>
	<g>
	</g>
	<g>
	</g>
	<g>
	</g>
	<g>
	</g>
</g>
<g>
	<path fill="#FFFFFF" d="M148.893,12.302h-12.438c-0.98,0-1.777,0.567-1.777,1.265v3.161c0,0.697,0.797,1.265,1.777,1.265h1.777
		v4.426h-0.001c-0.492,0-0.89,0.283-0.89,0.633s0.397,0.632,0.89,0.632h0.001v0.633h-0.001c-0.492,0-0.89,0.282-0.89,0.632
		s0.397,0.633,0.89,0.633h0.001v0.632h-0.001c-0.492,0-0.89,0.282-0.89,0.632c0,0.351,0.397,0.633,0.89,0.633h0.001v0.633h-0.001
		c-0.492,0-0.89,0.282-0.89,0.632s0.397,0.632,0.89,0.632h0.001v0.633h-0.001c-0.492,0-0.89,0.282-0.89,0.632
		c0,0.351,0.397,0.633,0.89,0.633h0.001v0.632h-0.001c-0.492,0-0.89,0.283-0.89,0.633s0.397,0.632,0.89,0.632h0.001V33.8h-0.001
		c-0.492,0-0.89,0.282-0.89,0.632s0.397,0.633,0.89,0.633h0.001v1.252c0,0.35,0.397,0.632,0.89,0.632h7.105
		c0.491,0,0.889-0.282,0.889-0.632v-1.252h0.004c0.491,0,0.889-0.283,0.889-0.633s-0.397-0.632-0.889-0.632h-0.004v-0.633h0.004
		c0.491,0,0.889-0.282,0.889-0.632s-0.397-0.633-0.889-0.633h-0.004v-0.632h0.004c0.491,0,0.889-0.282,0.889-0.633
		c0-0.35-0.397-0.632-0.889-0.632h-0.004v-0.633h0.004c0.491,0,0.889-0.282,0.889-0.632s-0.397-0.632-0.889-0.632h-0.004v-0.633
		h0.004c0.491,0,0.889-0.282,0.889-0.633c0-0.35-0.397-0.632-0.889-0.632h-0.004v-0.632h0.004c0.491,0,0.889-0.283,0.889-0.633
		s-0.397-0.632-0.889-0.632h-0.004v-0.633h0.004c0.491,0,0.889-0.282,0.889-0.632s-0.397-0.633-0.889-0.633h-0.004v-4.426h1.776
		c0.98,0,1.777-0.567,1.777-1.265v-3.161C150.67,12.87,149.873,12.302,148.893,12.302z M145.339,35.684h-5.328v-0.619h5.328V35.684z
		 M145.339,33.8h-5.328v-0.633h5.328V33.8z M145.339,31.903h-5.328v-0.632h5.328V31.903z M145.339,30.006h-5.328v-0.633h5.328
		V30.006z M145.339,28.11h-5.328v-0.633h5.328V28.11z M145.339,26.212h-5.328v-0.632h5.328V26.212z M145.339,24.316h-5.328v-0.633
		h5.328V24.316z M145.339,22.418h-5.328v-4.426h5.328V22.418z M148.89,16.728h-2.662h-7.105h-2.667v-3.161h12.438L148.89,16.728z"/>
	<path fill="#FFFFFF" d="M182.657,47.071h-1.778v-4.426h0.002c0.491,0,0.889-0.283,0.889-0.633s-0.397-0.632-0.889-0.632h-0.002
		v-0.633h0.002c0.491,0,0.889-0.282,0.889-0.632s-0.397-0.633-0.889-0.633h-0.002v-0.632h0.002c0.491,0,0.889-0.282,0.889-0.633
		c0-0.35-0.397-0.632-0.889-0.632h-0.002v-0.633h0.002c0.491,0,0.889-0.282,0.889-0.632s-0.397-0.632-0.889-0.632h-0.002v-0.633
		h0.002c0.491,0,0.889-0.282,0.889-0.633c0-0.35-0.397-0.632-0.889-0.632h-0.002v-0.632h0.002c0.491,0,0.889-0.283,0.889-0.633
		s-0.397-0.632-0.889-0.632h-0.002v-0.633h0.002c0.491,0,0.889-0.282,0.889-0.632s-0.397-0.633-0.889-0.633h-0.002v-1.252
		c0-0.35-0.397-0.632-0.889-0.632h-7.105c-0.492,0-0.89,0.282-0.89,0.632v1.252h-0.003c-0.492,0-0.889,0.283-0.889,0.633
		s0.396,0.632,0.889,0.632h0.003v0.633h-0.003c-0.492,0-0.889,0.282-0.889,0.632s0.396,0.633,0.889,0.633h0.003v0.632h-0.003
		c-0.492,0-0.889,0.282-0.889,0.632c0,0.351,0.396,0.633,0.889,0.633h0.003v0.633h-0.003c-0.492,0-0.889,0.282-0.889,0.632
		s0.396,0.632,0.889,0.632h0.003v0.633h-0.003c-0.492,0-0.889,0.282-0.889,0.632c0,0.351,0.396,0.633,0.889,0.633h0.003v0.632
		h-0.003c-0.492,0-0.889,0.283-0.889,0.633s0.396,0.632,0.889,0.632h0.003v0.633h-0.003c-0.492,0-0.889,0.282-0.889,0.632
		s0.396,0.633,0.889,0.633h0.003v4.426h-1.775c-0.98,0-1.778,0.567-1.778,1.265v3.161c0,0.697,0.798,1.265,1.778,1.265h12.438
		c0.98,0,1.777-0.567,1.777-1.265v-3.161C184.434,47.639,183.637,47.071,182.657,47.071z M173.773,29.379h5.328v0.619h-5.328V29.379
		z M173.773,31.263h5.328v0.633h-5.328V31.263z M173.773,33.161h5.328v0.632h-5.328V33.161z M173.773,35.057h5.328v0.633h-5.328
		V35.057z M173.773,36.954h5.328v0.633h-5.328V36.954z M173.773,38.851h5.328v0.632h-5.328V38.851z M173.773,40.748h5.328v0.633
		h-5.328V40.748z M173.773,42.645h5.328v4.426h-5.328V42.645z M182.653,51.497h-12.434v-3.161h2.665h7.105h2.667L182.653,51.497z"/>
	<path fill="#FFFFFF" d="M163.132,33.985c-0.168-0.119-0.393-0.186-0.629-0.186h-5.889c-0.236,0-0.462,0.066-0.629,0.186
		l-4.167,2.963c-0.167,0.119-0.261,0.279-0.261,0.447v4.191c0,0.168,0.094,0.329,0.261,0.447l4.167,2.963
		c0.167,0.119,0.393,0.186,0.629,0.186h5.889c0.236,0,0.462-0.066,0.629-0.186l4.167-2.963c0.167-0.119,0.26-0.279,0.26-0.447
		v-4.192c0-0.168-0.093-0.329-0.26-0.447L163.132,33.985z M165.782,41.324l-3.646,2.593h-5.152l-3.646-2.593v-3.668l3.646-2.593
		h5.152l3.646,2.593V41.324z"/>
	<path fill="#FFFFFF" d="M155.115,39.491c0,1.743,1.994,3.161,4.444,3.161c2.451,0,4.444-1.418,4.444-3.161
		c0-1.744-1.993-3.162-4.444-3.162C157.109,36.329,155.115,37.747,155.115,39.491L155.115,39.491z M162.226,39.491
		c0,1.045-1.196,1.896-2.667,1.896c-1.47,0-2.666-0.852-2.666-1.896c0-1.046,1.196-1.897,2.666-1.897
		C161.03,37.593,162.226,38.445,162.226,39.491z"/>
	<path fill="#FFFFFF" d="M163.132,20.06c-0.168-0.119-0.393-0.186-0.629-0.186h-5.889c-0.236,0-0.462,0.066-0.629,0.186
		l-4.167,2.963c-0.167,0.119-0.261,0.279-0.261,0.447v4.191c0,0.168,0.094,0.329,0.261,0.447l4.167,2.963
		c0.167,0.119,0.393,0.186,0.629,0.186h5.889c0.236,0,0.462-0.066,0.629-0.186l4.167-2.963c0.167-0.119,0.26-0.279,0.26-0.447V23.47
		c0-0.168-0.093-0.329-0.26-0.447L163.132,20.06z M165.782,27.4l-3.646,2.593h-5.152l-3.646-2.593v-3.668l3.646-2.593h5.152
		l3.646,2.593V27.4z"/>
	<path fill="#FFFFFF" d="M155.115,25.566c0,1.743,1.994,3.161,4.444,3.161c2.451,0,4.444-1.418,4.444-3.161
		s-1.993-3.162-4.444-3.162C157.109,22.404,155.115,23.823,155.115,25.566L155.115,25.566z M162.226,25.566
		c0,1.046-1.196,1.896-2.667,1.896c-1.47,0-2.666-0.851-2.666-1.896s1.196-1.897,2.666-1.897
		C161.03,23.668,162.226,24.52,162.226,25.566z"/>
</g>
<g>
	<g>
		<ellipse fill="#FFFFFF" cx="190.143" cy="128.693" rx="1.96" ry="1.718"/>
		<ellipse fill="#FFFFFF" cx="226.715" cy="128.693" rx="1.96" ry="1.718"/>
	</g>
	<ellipse fill="#FFFFFF" cx="208.429" cy="146.484" rx="17.56" ry="15.395"/>
	<path fill="#FFFFFF" d="M208.429,131.089c-0.371,0-0.74,0.012-1.105,0.031c9.183,0.5,16.454,7.188,16.454,15.364
		s-7.271,14.863-16.454,15.363c0.366,0.02,0.734,0.031,1.105,0.031c9.698,0,17.56-6.893,17.56-15.395
		C225.989,137.981,218.127,131.089,208.429,131.089z"/>
	<path d="M229.145,162.064l-6.448-5.653c2.038-2.246,3.401-4.982,3.819-7.973c0.004-0.022,0.007-0.046,0.009-0.068
		c0.083-0.619,0.127-1.248,0.127-1.886c0-1.487-0.233-2.928-0.669-4.294c-0.007-0.034-0.018-0.068-0.032-0.102
		c-0.483-1.477-1.203-2.867-2.122-4.137c-0.027-0.055-0.065-0.105-0.11-0.151c-0.727-0.98-1.573-1.886-2.52-2.703
		c-0.04-0.047-0.088-0.089-0.146-0.124c-0.096-0.081-0.192-0.16-0.29-0.239l4.627-4.057c0.407,0.21,0.866,0.314,1.325,0.314
		c0.672,0,1.343-0.225,1.855-0.673c1.022-0.896,1.022-2.355,0-3.252c-1.023-0.896-2.687-0.896-3.709,0
		c-0.861,0.755-0.997,1.907-0.409,2.788l-4.699,4.12c-0.614-0.428-1.261-0.823-1.936-1.18c-0.027-0.02-0.056-0.038-0.087-0.054
		c-0.026-0.013-0.053-0.023-0.08-0.033c-1.15-0.594-2.381-1.08-3.673-1.443c-0.038-0.015-0.077-0.025-0.116-0.033
		c-1.237-0.34-2.531-0.565-3.864-0.665c-0.024-0.003-0.048-0.005-0.073-0.006c-0.493-0.035-0.991-0.054-1.494-0.054
		c-1.013,0-2.007,0.074-2.976,0.214c-0.033,0.003-0.065,0.008-0.098,0.015c-2.819,0.421-5.419,1.412-7.641,2.833
		c-0.004,0.002-0.009,0.004-0.014,0.006c-0.054,0.026-0.103,0.059-0.145,0.096c-0.152,0.1-0.302,0.201-0.451,0.305l-4.699-4.12
		c0.588-0.881,0.452-2.033-0.409-2.788c-1.023-0.896-2.687-0.896-3.709,0s-1.023,2.355,0,3.252c0.511,0.448,1.183,0.673,1.854,0.673
		c0.459,0,0.918-0.104,1.326-0.314l4.626,4.057c-0.409,0.33-0.8,0.676-1.173,1.036c-0.053,0.039-0.099,0.084-0.135,0.133
		c-0.953,0.943-1.781,1.986-2.461,3.107c-0.033,0.042-0.061,0.087-0.081,0.134c-0.768,1.297-1.339,2.696-1.679,4.169
		c-0.007,0.022-0.012,0.045-0.015,0.068c-0.226,1.004-0.346,2.041-0.346,3.103c0,3.396,1.216,6.546,3.284,9.138
		c0.03,0.054,0.07,0.103,0.117,0.146c0.179,0.219,0.364,0.434,0.555,0.644l-6.448,5.653c-0.259,0.228-0.259,0.596,0,0.822
		c0.129,0.114,0.299,0.171,0.469,0.171c0.169,0,0.339-0.057,0.469-0.171l6.375-5.589c0.528,0.502,1.092,0.975,1.689,1.415
		c0.046,0.047,0.101,0.086,0.161,0.118c1.313,0.946,2.779,1.734,4.36,2.331c0.046,0.024,0.096,0.043,0.149,0.057
		c2.167,0.799,4.547,1.242,7.042,1.242c3.586,0,6.934-0.914,9.757-2.489c1.342,0.085,4.449,0.504,5.547,1.648
		c0.304,0.317,0.42,0.652,0.364,1.054c-0.035,0.245-0.398,0.547-0.998,0.825c-2.226,1.034-6.984,1.562-12.123,1.345
		c-6.173-0.26-12.065-1.523-16.589-3.558c-0.327-0.146-0.726-0.033-0.893,0.252c-0.167,0.286-0.038,0.637,0.288,0.783
		c4.689,2.107,10.772,3.416,17.13,3.685c0.801,0.034,1.59,0.05,2.363,0.05c4.471,0,8.349-0.556,10.445-1.529
		c1.031-0.479,1.601-1.055,1.693-1.711c0.102-0.724-0.122-1.378-0.665-1.943c-0.758-0.79-2.129-1.379-4.075-1.751
		c-0.312-0.059-0.613-0.108-0.894-0.148c0.731-0.512,1.417-1.071,2.05-1.675l6.375,5.59c0.129,0.113,0.299,0.17,0.469,0.17
		c0.17,0,0.34-0.057,0.469-0.17C229.403,162.66,229.403,162.291,229.145,162.064z M225.799,127.89
		c0.252-0.222,0.584-0.332,0.917-0.332s0.664,0.11,0.917,0.332c0.505,0.443,0.505,1.164,0,1.607s-1.328,0.443-1.833,0
		C225.293,129.054,225.293,128.333,225.799,127.89z M189.227,129.497c-0.505-0.443-0.505-1.164,0-1.607
		c0.253-0.222,0.585-0.332,0.917-0.332c0.332,0,0.664,0.11,0.917,0.332c0.506,0.443,0.506,1.164,0,1.607
		C190.555,129.94,189.732,129.94,189.227,129.497z M211.996,149.37c-0.538-0.421-1.072-0.868-1.6-1.337
		c1.463-4.698,5.961-11.955,7.238-13.966c0.773,0.442,1.502,0.938,2.181,1.481c-1.06,1.521-4.763,7.041-7.473,13.613
		C212.228,149.231,212.112,149.302,211.996,149.37z M208.718,151.066c-2.1-1.396-5.271-4.092-8.97-9.181
		c-0.197-0.271-0.607-0.351-0.916-0.178s-0.399,0.532-0.203,0.804c2.924,4.021,5.868,7.086,8.765,9.125
		c-0.561,0.229-1.131,0.45-1.714,0.658c-0.344,0.123-0.685,0.24-1.022,0.352c-2.444-1.641-5.118-4.444-7.754-8.136
		c-1.688-2.365-2.886-4.431-3.289-5.145c0.462-0.737,0.995-1.436,1.588-2.09c0.426,0.732,1.139,1.911,2.093,3.329
		c0.124,0.184,0.345,0.286,0.572,0.286c0.114,0,0.23-0.026,0.336-0.081c0.315-0.163,0.42-0.52,0.234-0.796
		c-1.142-1.698-1.945-3.07-2.296-3.688c0.525-0.489,1.088-0.945,1.685-1.368c0.557,0.845,1.688,2.514,3.194,4.509
		c0,0,0.001,0.001,0.001,0.002c0.217,0.288,0.443,0.583,0.675,0.883c0.568,0.734,1.121,1.423,1.657,2.072
		c0.003,0.005,0.007,0.009,0.011,0.014c1.063,1.284,2.061,2.408,2.987,3.389c0.021,0.027,0.046,0.054,0.073,0.077
		c0.992,1.046,1.9,1.928,2.715,2.667c0.025,0.027,0.054,0.053,0.085,0.076c0.587,0.529,1.125,0.984,1.61,1.373
		C210.154,150.387,209.446,150.735,208.718,151.066z M200.218,153.861c-5.064-3.731-7.853-9.448-8.317-10.455
		c0.229-0.945,0.56-1.856,0.983-2.726c1.493,2.543,5.511,8.892,10.303,12.422C202.145,153.406,201.146,153.656,200.218,153.861z
		 M198.899,134.259c1.566-0.941,3.322-1.658,5.206-2.096c-0.839,1.24-2.089,3.305-2.818,5.522
		C200.149,136.131,199.315,134.89,198.899,134.259z M212.725,132.156c-1.152,1.817-4.37,7.103-6.11,12.105
		c-0.683-0.752-1.34-1.513-1.964-2.262c0.614-1.395,3.301-7.367,5.569-10.246C211.075,131.833,211.912,131.969,212.725,132.156z
		 M216.496,133.471c-0.546,0.857-1.704,2.709-2.956,4.904c-2.009,3.525-3.419,6.438-4.203,8.684
		c-0.58-0.551-1.149-1.122-1.705-1.704c1.669-5.252,5.367-11.242,6.391-12.849C214.88,132.771,215.707,133.093,216.496,133.471z
		 M220.784,136.391c0.618,0.581,1.183,1.204,1.689,1.866c-1.64,3.48-4.104,6.505-7.331,8.993c-0.268,0.207-0.542,0.409-0.821,0.608
		C216.758,142.436,219.688,137.984,220.784,136.391z M208.692,131.674c-1.975,2.751-4.066,7.201-4.965,9.198
		c-0.514-0.641-1-1.265-1.452-1.86c0.753-3.163,3.01-6.35,3.624-7.175c0.826-0.109,1.67-0.166,2.53-0.166
		C208.517,131.671,208.604,131.672,208.692,131.674z M191.564,145.598c1.207,2.175,3.541,5.76,7.064,8.587
		c-2.02,0.376-3.54,0.522-4.207,0.575c-1.823-2.364-2.889-5.213-2.889-8.275C191.533,146.187,191.544,145.892,191.564,145.598z
		 M208.43,161.298c-1.337,0-2.639-0.138-3.887-0.396c0.732-0.118,1.577-0.274,2.509-0.484c2.932-0.66,7.305-1.989,11.49-4.576
		c0.3-0.186,0.371-0.548,0.16-0.811s-0.625-0.325-0.924-0.141c-7.099,4.389-14.876,5.095-16.081,5.18
		c-0.969-0.371-1.89-0.818-2.755-1.334c1.254-0.165,3.129-0.471,5.356-1.024c0.352-0.088,0.557-0.409,0.457-0.719
		c-0.1-0.309-0.466-0.488-0.819-0.4c-3.195,0.795-5.688,1.065-6.491,1.138c-0.761-0.572-1.463-1.202-2.098-1.883
		c1.98-0.201,6.122-0.793,10.794-2.46c0.963-0.344,1.897-0.716,2.8-1.114c0.007-0.003,0.015-0.006,0.022-0.01
		c1.152-0.509,2.252-1.062,3.3-1.656c0.026-0.013,0.051-0.026,0.074-0.042c0.314-0.179,0.624-0.361,0.928-0.548
		c0.005-0.002,0.009-0.005,0.014-0.008c0.956-0.587,1.864-1.211,2.72-1.87c3.146-2.423,5.603-5.331,7.316-8.657
		c0.538,0.875,0.978,1.804,1.308,2.772c-4.038,7.854-12.042,11.733-18.071,13.607c-0.345,0.107-0.526,0.439-0.404,0.742
		c0.097,0.239,0.353,0.388,0.625,0.388c0.074,0,0.148-0.011,0.222-0.033c5.928-1.843,13.696-5.559,18.102-12.903
		c0.149,0.791,0.229,1.602,0.229,2.429c0,0.559-0.037,1.109-0.105,1.651c-1.484,2.005-3.296,3.809-5.388,5.362
		c-0.279,0.207-0.314,0.574-0.078,0.819c0.131,0.136,0.318,0.205,0.507,0.205c0.151,0,0.304-0.045,0.428-0.138
		c1.414-1.05,2.705-2.209,3.861-3.463C222.395,156.929,215.983,161.298,208.43,161.298z"/>
	<g>
	</g>
	<g>
	</g>
	<g>
	</g>
	<g>
	</g>
	<g>
	</g>
	<g>
	</g>
	<g>
	</g>
	<g>
	</g>
	<g>
	</g>
	<g>
	</g>
	<g>
	</g>
	<g>
	</g>
	<g>
	</g>
	<g>
	</g>
	<g>
	</g>
</g>
<g>
	<path fill="#FFFFFF" d="M588.942,9.644H575.16c-1.121-3.788-5.074-6.588-9.779-6.588s-8.659,2.8-9.78,6.588h-13.782
		c-3.702,0-6.731,2.635-6.731,5.856v43.187c0,3.221,3.029,5.855,6.731,5.855h47.124c3.702,0,6.731-2.635,6.731-5.855V15.5
		C595.674,12.279,592.645,9.644,588.942,9.644z M565.381,9.644c1.851,0,3.365,1.317,3.365,2.928s-1.515,2.929-3.365,2.929
		s-3.366-1.318-3.366-2.929S563.53,9.644,565.381,9.644z M589.362,59.052h-47.964V15.134h6.311v9.882h35.343v-9.882h6.311V59.052z"
		/>
</g>
<g>
	<path fill="#FFFFFF" d="M582.746,146.484c0,24.272-23.15,43.948-51.709,43.948c-28.558,0-51.709-19.676-51.709-43.948
		c0-24.271,23.151-43.948,51.709-43.948C559.596,102.536,582.746,122.213,582.746,146.484z"/>
	<path fill="#D1D3D4" d="M531.037,201.42c-35.696,0-64.636-24.596-64.636-54.936s28.939-54.936,64.636-54.936
		c35.697,0,64.637,24.596,64.637,54.936C595.634,176.81,566.718,201.386,531.037,201.42z M531.037,95.212
		c-33.317,0-60.326,22.956-60.326,51.272c0,28.317,27.009,51.273,60.326,51.273c33.318,0,60.328-22.956,60.328-51.273
		C591.327,118.181,564.34,95.244,531.037,95.212z"/>
	<path fill="#D1D3D4" d="M561.201,146.484c0,14.159-13.505,25.637-30.164,25.637c-16.658,0-30.163-11.478-30.163-25.637
		c0-14.158,13.505-25.637,30.163-25.637C547.696,120.848,561.201,132.326,561.201,146.484z"/>
</g>
<g>
	<g>
		<path fill="#FFFFFF" d="M70.636,3.056l-49.3,23.617v47.233l49.3,23.617l49.299-23.617V26.673L70.636,3.056z M73.978,31.046h30.144
			l-30.145,14.44L73.978,31.046L73.978,31.046z M67.294,45.487L37.15,31.046h30.145V45.487z M64.064,50.343l-15.163,7.225
			L33.779,35.835L64.064,50.343z M67.294,55.199V84L52.243,62.37L67.294,55.199z M73.978,55.092l15.071,7.221l-15.071,21.66V55.092z
			 M77.32,50.29l30.144-14.44L92.391,57.51L77.32,50.29z M73.978,25.501v-14.44l30.144,14.44H73.978L73.978,25.501z M67.294,25.501
			H37.15L67.294,11.06V25.501z M28.02,38.65l15.085,21.679L28.02,67.516V38.65z M46.447,65.131l15.031,21.603L31.375,72.312
			L46.447,65.131z M94.837,65.085l15.072,7.221l-30.145,14.44L94.837,65.085z M98.179,60.283l15.072-21.661v28.882L98.179,60.283z"
			/>
	</g>
</g>
<rect y="0.383" opacity="0.5" fill="#F26922" width="755.727" height="271.743"/>
</svg>
